<svg width="100" height="100" viewBox="0 0 100 100" fill="none" xmlns="http://www.w3.org/2000/svg">
<rect x="2" y="2" width="96" height="96" rx="18" fill="#363738" stroke="#31B7F0" stroke-width="4"/>
<path d="M22.0196 59.1738V23.4738H30.8696V36.8238H39.1696V23.4738H48.0196V59.1738H39.1696V44.3238H30.8696V59.1738H22.0196ZM53.0001 59.1738V23.4738H64.2501C67.2167 23.4738 69.6501 23.8738 71.5501 24.6738C73.4834 25.4405 74.9167 26.5905 75.8501 28.1238C76.8167 29.6572 77.3001 31.5572 77.3001 33.8238C77.3001 35.3238 77.1001 36.6738 76.7001 37.8738C76.3001 39.0405 75.6834 40.1072 74.8501 41.0738C74.0501 42.0072 73.0501 42.8572 71.8501 43.6238L79.7501 59.1738H70.4501L64.7001 46.2738H61.2001V59.1738H53.0001ZM64.2001 39.0238C65.1001 39.0238 65.9167 38.8738 66.6501 38.5738C67.3834 38.2738 67.9667 37.8072 68.4001 37.1738C68.8334 36.5405 69.0501 35.7072 69.0501 34.6738C69.0501 33.4405 68.6667 32.4738 67.9001 31.7738C67.1667 31.0738 66.0167 30.7238 64.4501 30.7238H61.2001V39.0238H64.2001Z" fill="#31B7F0"/>
<path d="M21.4591 79.3042V69.3082H28.1791V71.4082H23.8531V73.4942H28.0111V75.5942H23.8531V79.3042H21.4591ZM29.0837 79.3042L31.6037 69.2662H34.8097L37.3437 79.3042H34.9077L33.7037 73.3822C33.657 73.1395 33.601 72.8689 33.5357 72.5702C33.4797 72.2715 33.4237 71.9775 33.3677 71.6882C33.321 71.3989 33.279 71.1515 33.2417 70.9462C33.2137 71.1515 33.1717 71.3989 33.1157 71.6882C33.0597 71.9775 32.999 72.2715 32.9337 72.5702C32.8777 72.8689 32.8217 73.1395 32.7657 73.3822L31.4637 79.3042H29.0837ZM31.5477 77.2462L31.8417 75.2722H34.5297L34.7677 77.2462H31.5477ZM42.0702 79.4442C41.1649 79.4442 40.4089 79.2389 39.8022 78.8282C39.1955 78.4175 38.7382 77.8389 38.4302 77.0922C38.1222 76.3362 37.9682 75.4495 37.9682 74.4322C37.9682 73.6015 38.0755 72.8595 38.2902 72.2062C38.5049 71.5529 38.8175 71.0022 39.2282 70.5542C39.6389 70.0969 40.1335 69.7515 40.7122 69.5182C41.3002 69.2849 41.9629 69.1682 42.7002 69.1682C43.1389 69.1682 43.5682 69.2149 43.9882 69.3082C44.4175 69.3922 44.8609 69.5275 45.3182 69.7142L44.6602 71.7862C44.3335 71.6275 44.0022 71.5155 43.6662 71.4502C43.3302 71.3755 43.0222 71.3382 42.7422 71.3382C42.3129 71.3382 41.9489 71.4129 41.6502 71.5622C41.3515 71.7022 41.1135 71.9075 40.9362 72.1782C40.7682 72.4489 40.6422 72.7755 40.5582 73.1582C40.4835 73.5409 40.4462 73.9702 40.4462 74.4462C40.4462 75.1275 40.5162 75.6782 40.6562 76.0982C40.8055 76.5089 41.0295 76.8122 41.3282 77.0082C41.6362 77.1949 42.0235 77.2882 42.4902 77.2882C42.8635 77.2882 43.2742 77.2322 43.7222 77.1202C44.1702 77.0082 44.5762 76.8402 44.9402 76.6162V78.8702C44.5015 79.0662 44.0349 79.2109 43.5402 79.3042C43.0455 79.3975 42.5555 79.4442 42.0702 79.4442ZM48.7707 79.3042V71.4082H46.0827V69.3082H53.9227V71.4082H51.2207V79.3042H48.7707ZM58.3973 79.4442C57.7253 79.4442 57.1419 79.3322 56.6473 79.1082C56.1526 78.8842 55.7466 78.5529 55.4293 78.1142C55.1119 77.6755 54.8739 77.1389 54.7153 76.5042C54.5566 75.8602 54.4773 75.1229 54.4773 74.2922C54.4773 73.1722 54.6173 72.2342 54.8973 71.4782C55.1866 70.7129 55.6206 70.1342 56.1993 69.7422C56.7779 69.3502 57.5106 69.1542 58.3973 69.1542C59.0693 69.1542 59.6526 69.2709 60.1473 69.5042C60.6419 69.7282 61.0479 70.0595 61.3653 70.4982C61.6919 70.9369 61.9299 71.4782 62.0793 72.1222C62.2379 72.7569 62.3173 73.4849 62.3173 74.3062C62.3173 75.1182 62.2379 75.8462 62.0793 76.4902C61.9299 77.1249 61.6966 77.6615 61.3793 78.1002C61.0619 78.5389 60.6559 78.8749 60.1613 79.1082C59.6666 79.3322 59.0786 79.4442 58.3973 79.4442ZM58.3973 77.3442C58.7519 77.3442 59.0319 77.2369 59.2373 77.0222C59.4426 76.8075 59.5873 76.4715 59.6713 76.0142C59.7646 75.5569 59.8113 74.9735 59.8113 74.2642C59.8113 73.2375 59.7086 72.4815 59.5033 71.9962C59.3073 71.5109 58.9386 71.2682 58.3973 71.2682C58.0519 71.2682 57.7766 71.3709 57.5713 71.5762C57.3659 71.7722 57.2166 72.0942 57.1233 72.5422C57.0299 72.9809 56.9833 73.5642 56.9833 74.2922C56.9833 75.0109 57.0253 75.5989 57.1093 76.0562C57.2026 76.5042 57.3519 76.8309 57.5573 77.0362C57.7719 77.2415 58.0519 77.3442 58.3973 77.3442ZM63.4318 79.3042V69.3082H66.5818C67.4125 69.3082 68.0938 69.4202 68.6258 69.6442C69.1671 69.8589 69.5685 70.1809 69.8298 70.6102C70.1005 71.0395 70.2358 71.5715 70.2358 72.2062C70.2358 72.6262 70.1798 73.0042 70.0678 73.3402C69.9558 73.6669 69.7831 73.9655 69.5498 74.2362C69.3258 74.4975 69.0458 74.7355 68.7098 74.9502L70.9218 79.3042H68.3178L66.7078 75.6922H65.7278V79.3042H63.4318ZM66.5678 73.6622C66.8198 73.6622 67.0485 73.6202 67.2538 73.5362C67.4591 73.4522 67.6225 73.3215 67.7438 73.1442C67.8651 72.9669 67.9258 72.7335 67.9258 72.4442C67.9258 72.0989 67.8185 71.8282 67.6038 71.6322C67.3985 71.4362 67.0765 71.3382 66.6378 71.3382H65.7278V73.6622H66.5678ZM73.9683 79.3042V75.4402L71.1963 69.3082H73.7723L75.2143 72.8642L76.6283 69.3082H79.1763L76.4183 75.4402V79.3042H73.9683Z" fill="#FCFCFD"/>
</svg>
